<?xml version="1.0" encoding="utf-8"?>
<!-- Generator: Adobe Illustrator 22.1.0, SVG Export Plug-In . SVG Version: 6.00 Build 0)  -->
<svg version="1.1" id="Layer_1" xmlns="http://www.w3.org/2000/svg" xmlns:xlink="http://www.w3.org/1999/xlink" x="0px" y="0px"
	 viewBox="0 0 528.3 422.5" style="enable-background:new 0 0 528.3 422.5;" xml:space="preserve">
<style type="text/css">
	.st0{fill:#414042;}
</style>
<g>
	<path class="st0" d="M510.8,72.7H409.2V38.9h1.2c10.3,0,18.6-8.4,18.6-18.6v-1.6c0-10.3-8.4-18.6-18.6-18.6h-41.3
		c-10.3,0-18.6,8.4-18.6,18.6v1.6c0,10.3,8.4,18.6,18.6,18.6h1.2v33.9H157.9V52.1h1.2c10.3,0,18.6-8.4,18.6-18.6v-1.6
		c0-10.3-8.4-18.6-18.6-18.6h-41.3c-10.3,0-18.6,8.4-18.6,18.6v1.6c0,10.3,8.4,18.6,18.6,18.6h1.2v20.6H17.5C7.8,72.7,0,80.6,0,90.2
		v281.7c0,9.6,7.8,17.5,17.5,17.5h28.8v17.3c0,8.7,7.1,15.7,15.7,15.7h33.9c8.7,0,15.7-7.1,15.7-15.7v-17.3h305v17.3
		c0,8.7,7.1,15.7,15.7,15.7h33.9c8.7,0,15.7-7.1,15.7-15.7v-17.3h28.8c9.6,0,17.5-7.8,17.5-17.5V90.2
		C528.3,80.6,520.4,72.7,510.8,72.7z M369.1,26.5c-3.4,0-6.2-2.8-6.2-6.2v-1.6c0-3.4,2.8-6.2,6.2-6.2h41.3c3.4,0,6.2,2.8,6.2,6.2
		v1.6c0,3.4-2.8,6.2-6.2,6.2h-1.2h-38.9H369.1z M382.8,38.9h14v33.9h-14V38.9z M117.8,39.7c-3.4,0-6.2-2.8-6.2-6.2v-1.6
		c0-3.4,2.8-6.2,6.2-6.2h41.3c3.4,0,6.2,2.8,6.2,6.2v1.6c0,3.4-2.8,6.2-6.2,6.2h-1.2H119H117.8z M131.5,52.1h14v20.6h-14V52.1z
		 M99.2,406.7c0,1.8-1.5,3.3-3.3,3.3H62c-1.8,0-3.3-1.5-3.3-3.3v-17.3h40.5V406.7z M469.5,406.7c0,1.8-1.5,3.3-3.3,3.3h-33.9
		c-1.8,0-3.3-1.5-3.3-3.3v-17.3h40.5V406.7z M515.8,371.9c0,2.8-2.3,5-5,5H482h-65.3h-305H46.3H17.5c-2.8,0-5-2.3-5-5V90.2
		c0-2.8,2.3-5,5-5H119h38.9h212.4h38.9h101.6c2.8,0,5,2.3,5,5V371.9z"/>
	<path class="st0" d="M144,132.3c-58,0-105.1,47.2-105.1,105.1c0,58,47.2,105.1,105.1,105.1c58,0,105.1-47.2,105.1-105.1
		C249.1,179.4,202,132.3,144,132.3z M144,330.1c-51.1,0-92.7-41.6-92.7-92.7s41.6-92.7,92.7-92.7c51.1,0,92.7,41.6,92.7,92.7
		S195.1,330.1,144,330.1z"/>
	<path class="st0" d="M173,207.9l-27.7,20.8c-2.7,2.1-3.3,6-1.2,8.7c2.1,2.7,6,3.3,8.7,1.2l27.7-20.8c2.7-2.1,3.3-6,1.2-8.7
		C179.6,206.4,175.7,205.8,173,207.9z"/>
	<path class="st0" d="M384.3,132.3c-58,0-105.1,47.2-105.1,105.1c0,58,47.2,105.1,105.1,105.1c58,0,105.1-47.2,105.1-105.1
		C489.4,179.4,442.2,132.3,384.3,132.3z M384.3,330.1c-51.1,0-92.7-41.6-92.7-92.7s41.6-92.7,92.7-92.7c51.1,0,92.7,41.6,92.7,92.7
		S435.4,330.1,384.3,330.1z"/>
	<path class="st0" d="M364.8,209.1c-2.4-2.4-6.4-2.4-8.8,0c-2.4,2.4-2.4,6.4,0,8.8l19.5,19.5c2.4,2.4,6.4,2.4,8.8,0
		c2.4-2.4,2.4-6.4,0-8.8L364.8,209.1z"/>
</g>
</svg>
