<?xml version="1.0" encoding="utf-8"?>
<!-- Generator: Adobe Illustrator 22.1.0, SVG Export Plug-In . SVG Version: 6.00 Build 0)  -->
<svg version="1.1" id="Layer_1" xmlns="http://www.w3.org/2000/svg" xmlns:xlink="http://www.w3.org/1999/xlink" x="0px" y="0px"
	 viewBox="0 0 408.7 549" style="enable-background:new 0 0 408.7 549;" xml:space="preserve">
<style type="text/css">
	.st0{fill:#414042;}
</style>
<g>
	<path class="st0" d="M153.9,517.8c-1.1-9.5-5.8-18-12.7-24v-11.3c0-5.8-2.8-10.9-7.2-14.1l-0.2-0.3c-2.9-5-17.5-32.2-15.4-74.7
		c1.1-21.6,4.2-38.7,9-49.3c0.9-2.1,0.8-4.4-0.5-6.3c-1.2-1.9-3.3-3-5.6-3h-0.1c1.1-15.1,7.2-36.7,10.1-41.5c1.6-2.7,1.6-6,0.1-8.7
		c-1.6-2.8-4.5-4.5-7.8-4.5h-4.2c-1.6-7.3-6.1-13.5-12.2-17.2c1.4-2.5,2.2-5.3,2.2-8.3c0-9.3-7.5-16.8-16.8-16.8
		c-9.3,0-16.8,7.5-16.8,16.8c0,3,0.8,5.9,2.2,8.3c-6.2,3.8-10.7,10-12.2,17.2h-4.2c-3.2,0-6.2,1.7-7.8,4.5c-1.5,2.7-1.5,6,0.1,8.7
		c2.8,4.8,9,26.4,10.1,41.5h-0.1c-2.3,0-4.3,1.1-5.6,3c-1.2,1.9-1.4,4.3-0.5,6.3c4.8,10.6,7.9,27.6,9,49.3
		c2.1,42.5-12.5,69.6-15.4,74.7l-0.2,0.3c-4.3,3.2-7.2,8.3-7.2,14.1v11.3c-6.9,6-11.6,14.4-12.7,24c-4,1.5-6.8,5.3-6.8,9.8v11
		c0,5.8,4.7,10.5,10.5,10.5h115.1c5.8,0,10.5-4.7,10.5-10.5v-11C160.7,523.1,157.8,519.3,153.9,517.8z M92.6,250.2
		c2.4,0,4.4,2,4.4,4.4c0,2.4-2,4.4-4.4,4.4c-2.4,0-4.4-2-4.4-4.4C88.2,252.2,90.2,250.2,92.6,250.2z M92,271.4h1.3
		c5.9,0,11,3.6,13.2,8.8H78.8C80.9,275,86,271.4,92,271.4z M67.2,292.6H118c-3.8,10-8.4,28.3-9.3,42.2H76.5
		C75.6,320.9,71,302.6,67.2,292.6z M79.3,392.8c-0.9-17.8-3.1-32.9-6.6-44.4h39.8c-3.5,11.5-5.7,26.6-6.6,44.4
		c-1.7,33.8,6.6,59,12.4,72.2H66.9C72.7,451.9,80.9,426.7,79.3,392.8z M56.5,484.5v-2c0-2.8,2.3-5,5-5h62.1c2.8,0,5,2.3,5,5v2h-12.3
		H68.8H56.5z M68.8,497h47.6c12.2,0,22.4,8.6,24.8,20.1H44C46.4,505.6,56.6,497,68.8,497z M148.2,536.6H37v-7.1h111.2V536.6z"/>
	<path class="st0" d="M400.5,95.6l-29.1,9.7c-8.7,2.9-16.5,8-22.6,14.8l-0.3,0.4l-36.6,56.8c-11,12.2-23.9,22.6-38.2,30.7l-86.5,59
		l-33,20.9l-0.1-0.1l0-14.3c0-6.7,2.7-13.1,7.4-17.9l49.5-49.4c13-13,14.5-33.9,3.5-48.6l-4.7-6.3c-2.8-3.8-7.3-5.8-12-5.5
		l-37.9,2.9c-6.6,0.5-13,2.6-18.6,6.2l-55.1,35c-16.2,10.3-28.1,26.1-33,44.6c-2.2,8.2-8.3,14.8-16.4,17.5l-8.6,2.9l8.7-39
		c2.7-12,8.7-23,17.5-31.7l43.7-43.6l16-20.5c5.2-6.6,12.5-10.9,20.6-12.2c3-0.5,5.3-3,5.3-6.1v-0.2c0-3.8-3.4-6.6-7.1-6.1
		c-11.3,1.8-21.4,7.7-28.6,16.9L89,131.9l-43.4,43.3c-10.4,10.4-17.6,23.5-20.8,37.8l-4.1,18.4l-7.7,3.6l6.8-47.1
		c2-14.2,4-27.7,13.8-37.5L94.2,90l19.1-24.4c4.3-5.5,10.8-8.7,17.8-8.7c0,0,0,0,0,0l25.3,0L305,33.6l64.5-21.4
		c3.3-1.1,5-4.6,3.9-7.9l0,0c-1.1-3.3-4.6-5-7.9-3.9l-63.6,21.1l-146.6,23l-24.3,0h0c-10.8,0-21,5-27.6,13.5L85.2,81.4l-60.3,60.2
		C12,154.5,9.7,170.6,7.5,186.3l-7.4,51.2c-0.5,3.5,0.8,7,3.6,9.3c1.9,1.6,4.2,2.4,6.5,2.4c1.1,0,2.2-0.2,3.2-0.5l3.9-1.8l-2,8.8
		c-0.6,2.5-0.3,5.2,0.9,7.5c2.5,4.5,7.6,6.3,12.2,4.8l12.3-4.1c12-4,21.1-13.8,24.5-26c4.3-15.5,14.1-28.7,27.7-37.4l55.1-35
		c3.9-2.5,8.3-3.9,12.9-4.3l37.9-2.9c0.4,0,0.9,0.2,1.1,0.5l4.7,6.3c7.3,9.8,6.3,23.7-2.3,32.4l-49.5,49.4
		c-7.1,7.1-11.1,16.6-11.1,26.6l0,13.8c0,4.5,2.2,8.9,6,11.2c2,1.2,4.3,1.8,6.5,1.8c2.3,0,4.7-0.7,6.7-2l33.1-21l86.1-58.7
		c15.5-8.9,29.5-20.1,41.4-33.5l0.3-0.4l36.6-56.8c4.6-5,10.5-8.8,17-11l29-9.6c3.3-1.1,5-4.6,3.9-7.9l0,0
		C407.2,96.3,403.7,94.5,400.5,95.6z"/>
</g>
</svg>
