<?xml version="1.0" encoding="utf-8"?>
<!-- Generator: Adobe Illustrator 22.1.0, SVG Export Plug-In . SVG Version: 6.00 Build 0)  -->
<svg version="1.1" id="Layer_1" xmlns="http://www.w3.org/2000/svg" xmlns:xlink="http://www.w3.org/1999/xlink" x="0px" y="0px"
	 viewBox="0 0 412.1 209.5" style="enable-background:new 0 0 412.1 209.5;" xml:space="preserve" fill="white">
<g>
	<path d="M67.7,95.5c0,14-6.7,21.1-17.3,21.1c-9.3,0-16.2-5.2-23.5-14L0,128.1c10.6,14.4,26.7,25.4,53,25.4
		c17.3,0,31.5-5.4,41.4-15.3c10.1-10.1,14.9-23.5,14.9-42.5V0H67.7V95.5z"/>
	<polygon points="200.6,86 190.3,75.5 200.6,64.9 257.7,0 208.1,0 167,48.5 167,0 156.2,0 130.3,0 125.1,0 125.1,150.9 130.3,150.9 
		156.2,150.9 167,150.9 167,102.4 208.1,150.9 257.7,150.9 	"/>
	<path d="M326.9,0h-58.2v150.9H326c54.3,0,86-32.3,86-75.9v-0.4C412.1,31.1,380.8,0,326.9,0z M377.1,75.2
		c0,27.2-19.8,47.4-53.8,47.4h-23.8c2.5-3.7,15.8-21.2,15.9-21.3c8.6-11.1,12.5-18.9,20.9-29.9c0.3-0.3,0-0.8-0.4-0.8
		c-8.9,0.9-17.5,4.5-24.4,10.3c-0.9,0.8-2,1.7-3.2,1.4c-0.6-0.1-1.1-0.5-1.6-0.9c-1.8-1.4-3.6-2.9-5.4-4.3c-0.5-0.4-1-0.8-1.3-1.4
		c-0.5-1,0.1-2.2,0.2-3.3c0.1-1.2-0.2-2.5,0-3.7c0.2-2.1,1.7-3.9,3.1-5.5c7-8,14.1-15.9,21.1-23.9c0.3-0.4,0.7-0.8,0.7-1.3
		c0-0.5-0.2-0.9-0.5-1.3c-1.4-2.4-2.1-5.9-1-8.4c33.7,0,53.2,19.4,53.2,46.6V75.2z"/>
	<path d="M12.5,203.2c0,1-0.2,1.7-0.6,2.1c-0.4,0.4-1,0.7-1.7,0.7c-0.6,0-1.1-0.1-1.6-0.4c-0.5-0.3-1-0.7-1.5-1.2l-2.3,2.6
		c0.6,0.7,1.3,1.3,2.2,1.8c0.9,0.5,2,0.7,3.3,0.7c0.9,0,1.7-0.1,2.4-0.4s1.4-0.6,1.9-1.1c0.5-0.5,0.9-1.1,1.2-1.9s0.4-1.6,0.4-2.7
		v-11h-3.8V203.2z"/>
	<path d="M32.3,192.2l-7.2,16.9h3.8l1.5-3.8h7.1l1.5,3.8h3.9l-7.2-16.9H32.3z M31.7,202.1l2.2-5.4l2.2,5.4H31.7z"/>
	<polygon points="63.3,202.7 55.4,192.4 52,192.4 52,209.2 55.6,209.2 55.6,198.5 63.8,209.2 66.9,209.2 66.9,192.4 63.3,192.4 	"/>
	<rect x="76.6" y="200" width="7.4" height="3.5"/>
	<polygon points="108.7,192.4 104.2,192.4 97.4,199.7 97.4,192.4 93.7,192.4 93.7,209.2 97.4,209.2 97.4,204 99.4,202 104.6,209.2 
		109,209.2 101.8,199.5 	"/>
	<path d="M130.7,201.3c0.7-0.9,1-2,1-3.3v0c0-1.7-0.6-3.1-1.7-4.1c-1.1-1-2.7-1.5-4.7-1.5h-7.7v16.8h3.7v-5.4h2.9l3.6,5.4h4.3
		l-4.1-6C129.2,202.8,130.1,202.1,130.7,201.3z M128,198.1c0,0.7-0.2,1.3-0.7,1.7s-1.2,0.6-2.1,0.6h-3.7v-4.8h3.7
		c0.9,0,1.6,0.2,2.1,0.6C127.7,196.7,128,197.3,128,198.1L128,198.1z"/>
	<polygon points="141.3,195.6 150.3,195.6 141,206.4 141,209.2 155,209.2 155,205.9 145.8,205.9 155,195.2 155,192.4 141.3,192.4 	
		"/>
	<polygon points="171.6,199.1 167.6,192.4 163.3,192.4 169.7,202.5 169.7,209.2 173.4,209.2 173.4,202.5 179.9,192.4 175.7,192.4 	
		"/>
	<path d="M199.4,200.9c-0.5-0.4-1-0.7-1.7-1s-1.4-0.5-2.3-0.8c-0.7-0.2-1.3-0.4-1.8-0.5c-0.5-0.1-0.8-0.3-1.1-0.5
		c-0.3-0.2-0.5-0.3-0.6-0.5c-0.1-0.2-0.2-0.4-0.2-0.7v0c0-0.4,0.2-0.8,0.5-1c0.4-0.3,0.9-0.4,1.6-0.4c0.7,0,1.4,0.1,2.2,0.4
		s1.5,0.7,2.2,1.2l1.9-2.8c-0.9-0.7-1.8-1.2-2.8-1.6c-1-0.4-2.2-0.6-3.4-0.6c-0.9,0-1.7,0.1-2.4,0.4c-0.7,0.2-1.3,0.6-1.9,1
		c-0.5,0.4-0.9,1-1.2,1.6s-0.4,1.3-0.4,2.1v0c0,0.8,0.1,1.5,0.4,2.1c0.3,0.6,0.6,1,1.1,1.4s1.1,0.7,1.8,0.9c0.7,0.3,1.5,0.5,2.3,0.7
		c0.7,0.2,1.3,0.3,1.7,0.5c0.4,0.2,0.8,0.3,1,0.5c0.2,0.2,0.4,0.3,0.5,0.5c0.1,0.2,0.1,0.4,0.1,0.6v0c0,0.5-0.2,0.9-0.6,1.2
		c-0.4,0.3-1,0.4-1.8,0.4c-1,0-1.8-0.2-2.7-0.6c-0.8-0.4-1.6-0.9-2.4-1.5l-2.2,2.6c1,0.9,2.1,1.6,3.4,2c1.2,0.4,2.5,0.7,3.8,0.7
		c0.9,0,1.7-0.1,2.5-0.3c0.8-0.2,1.4-0.6,1.9-1c0.5-0.4,1-1,1.3-1.6c0.3-0.6,0.5-1.4,0.5-2.2v0c0-0.7-0.1-1.4-0.3-1.9
		S199.9,201.3,199.4,200.9z"/>
	<polygon points="210.3,195.6 219.3,195.6 210,206.4 210,209.2 224,209.2 224,205.9 214.8,205.9 224,195.2 224,192.4 210.3,192.4 	
		"/>
	<polygon points="232.8,195.8 237.9,195.8 237.9,209.2 241.6,209.2 241.6,195.8 246.7,195.8 246.7,192.4 232.8,192.4 	"/>
	<path d="M270.6,194.6c-0.8-0.8-1.7-1.4-2.8-1.8s-2.3-0.7-3.6-0.7s-2.5,0.2-3.6,0.7s-2,1.1-2.8,1.9s-1.4,1.7-1.9,2.8
		c-0.4,1-0.7,2.2-0.7,3.4v0c0,1.2,0.2,2.3,0.7,3.4c0.4,1,1.1,2,1.8,2.7c0.8,0.8,1.7,1.4,2.8,1.8c1.1,0.5,2.3,0.7,3.6,0.7
		s2.5-0.2,3.6-0.7c1.1-0.5,2-1.1,2.8-1.9s1.4-1.7,1.9-2.8c0.4-1,0.7-2.2,0.7-3.4v0c0-1.2-0.2-2.3-0.7-3.4
		C272,196.3,271.4,195.4,270.6,194.6z M269.3,200.8c0,0.7-0.1,1.4-0.4,2c-0.2,0.6-0.6,1.2-1,1.7c-0.4,0.5-1,0.9-1.6,1.1
		c-0.6,0.3-1.3,0.4-2,0.4c-0.8,0-1.4-0.1-2.1-0.4c-0.6-0.3-1.2-0.7-1.6-1.1c-0.5-0.5-0.8-1-1.1-1.7c-0.2-0.6-0.4-1.3-0.4-2v0
		c0-0.7,0.1-1.4,0.4-2s0.6-1.2,1-1.7c0.4-0.5,1-0.9,1.6-1.1c0.6-0.3,1.3-0.4,2.1-0.4c0.7,0,1.4,0.1,2,0.4s1.2,0.7,1.6,1.1
		c0.5,0.5,0.8,1,1.1,1.7C269.1,199.4,269.3,200,269.3,200.8L269.3,200.8z"/>
	<polygon points="282.9,209.2 286.6,209.2 286.6,202.7 294.6,202.7 294.6,199.3 286.6,199.3 286.6,195.7 295.7,195.7 295.7,192.4 
		282.9,192.4 	"/>
	<path d="M331.8,194.8c-0.8-0.8-1.7-1.3-2.8-1.8s-2.3-0.6-3.6-0.6h-6.6v16.8h6.6c1.3,0,2.5-0.2,3.6-0.6c1.1-0.4,2-1,2.8-1.8
		s1.4-1.6,1.8-2.7c0.4-1,0.6-2.1,0.6-3.3v0c0-1.2-0.2-2.3-0.6-3.3C333.2,196.4,332.6,195.5,331.8,194.8z M330.4,200.8
		c0,0.8-0.1,1.4-0.4,2c-0.2,0.6-0.6,1.1-1,1.6c-0.4,0.4-1,0.8-1.6,1c-0.6,0.2-1.3,0.4-2.1,0.4h-2.9v-10.1h2.9c0.8,0,1.4,0.1,2.1,0.4
		s1.2,0.6,1.6,1c0.4,0.4,0.8,1,1,1.6S330.4,200,330.4,200.8L330.4,200.8z"/>
	<path d="M354.7,202c0,1.3-0.3,2.4-1,3c-0.6,0.7-1.5,1-2.7,1c-1.1,0-2-0.3-2.7-1c-0.6-0.7-1-1.7-1-3.1v-9.5h-3.7v9.6
		c0,2.5,0.6,4.3,1.9,5.6s3.1,1.9,5.3,1.9c1.1,0,2.1-0.2,3-0.5c0.9-0.3,1.7-0.8,2.3-1.4c0.6-0.6,1.1-1.4,1.5-2.4
		c0.3-0.9,0.5-2.1,0.5-3.3v-9.5h-3.7V202z"/>
	<path d="M381.7,194.8c-0.8-0.8-1.7-1.3-2.8-1.8s-2.3-0.6-3.6-0.6h-6.6v16.8h6.6c1.3,0,2.5-0.2,3.6-0.6c1.1-0.4,2-1,2.8-1.8
		s1.4-1.6,1.8-2.7c0.4-1,0.6-2.1,0.6-3.3v0c0-1.2-0.2-2.3-0.6-3.3C383.1,196.4,382.5,195.5,381.7,194.8z M380.3,200.8
		c0,0.8-0.1,1.4-0.4,2c-0.2,0.6-0.6,1.1-1,1.6c-0.4,0.4-1,0.8-1.6,1c-0.6,0.2-1.3,0.4-2.1,0.4h-2.9v-10.1h2.9c0.8,0,1.4,0.1,2.1,0.4
		s1.2,0.6,1.6,1c0.4,0.4,0.8,1,1,1.6S380.3,200,380.3,200.8L380.3,200.8z"/>
	<path d="M399.7,192.2l-7.2,16.9h3.8l1.5-3.8h7.1l1.5,3.8h3.9l-7.2-16.9H399.7z M399.1,202.1l2.2-5.4l2.2,5.4H399.1z"/>
</g>
</svg>
