<?xml version="1.0" encoding="utf-8"?>
<!-- Generator: Adobe Illustrator 22.1.0, SVG Export Plug-In . SVG Version: 6.00 Build 0)  -->
<svg version="1.1" id="Capa_1" xmlns="http://www.w3.org/2000/svg" xmlns:xlink="http://www.w3.org/1999/xlink" x="0px" y="0px"
	 viewBox="0 0 54.3 67" style="enable-background:new 0 0 54.3 67;" xml:space="preserve" fill="white">
<g>
	<path d="M44.5,12.2l-0.8-0.8l0,0L33.6,1.3c0,0,0,0,0,0l-0.8-0.8C32.5,0.2,32,0,31.5,0h-29C1.3,0,0,0.9,0,2.9V39v16.5V56
		c0,0.8,0.8,1.7,1.8,1.9c0.1,0,0.1,0,0.1,0c0.2,0,0.3,0,0.5,0h40.1c0.2,0,0.3,0,0.5,0c0.1,0,0.1,0,0.1,0c1-0.3,1.8-1.1,1.8-1.9v-0.5
		V39V14C45,13.2,44.9,12.6,44.5,12.2z M33,3.6l8.4,8.4H33V3.6z M2.5,56c-0.1,0-0.1,0-0.2,0C2.1,55.9,2,55.7,2,55.5V41h41v14.5
		c0,0.2-0.1,0.3-0.3,0.4c-0.1,0-0.1,0-0.2,0H2.5z M2,39V2.9C2,2.7,2,2,2.5,2h28.6C31,2.1,31,2.3,31,2.4V14h11.6c0.1,0,0.3,0,0.4-0.1
		c0,0,0,0,0,0v25H2z"/>
	<polygon points="13.1,45.2 18.2,45.2 17.9,45.5 13.1,52.7 13.1,54 19.8,54 19.8,52.7 14.7,52.7 15,52.5 19.8,45.2 19.8,43.9 
		13.1,43.9 	"/>
	<rect x="22.1" y="43.9" width="1.7" height="10.1"/>
	<path d="M31.6,44.7c-0.3-0.3-0.7-0.5-1.1-0.6c-0.4-0.1-0.8-0.2-1.3-0.2h-2.9V54h1.6v-3.6h1.2c0.5,0,1-0.1,1.4-0.2s0.8-0.4,1.1-0.7
		c0.3-0.3,0.6-0.6,0.7-1c0.2-0.4,0.3-0.9,0.3-1.4c0-0.5-0.1-0.9-0.3-1.3S31.9,45,31.6,44.7z M30.9,48.1c-0.1,0.3-0.2,0.5-0.4,0.6
		S30.2,49,30,49.1s-0.4,0.1-0.6,0.1h-1.5v-4h1.2c0.4,0,0.8,0.1,1,0.2c0.3,0.1,0.5,0.3,0.6,0.5c0.1,0.2,0.2,0.4,0.3,0.6
		c0,0.2,0.1,0.4,0.1,0.6C31.1,47.5,31,47.8,30.9,48.1z"/>
	<path d="M23,23h2v-2h-2v-2h2v-2h-2v-2h2v-2h-2v-2h2V9h-2V7h-2v2h-2v2h2v2h-2v2h2v2h-2v2h2v2h-2v2h2v2h-4v5c0,2.8,2.2,5,5,5
		s5-2.2,5-5v-5h-4V23z M25,30c0,1.7-1.3,3-3,3s-3-1.3-3-3v-3h6V30z"/>
	<path d="M21,31h2c0.6,0,1-0.4,1-1s-0.4-1-1-1h-2c-0.6,0-1,0.4-1,1S20.4,31,21,31z"/>
</g>
<path d="M46.5,51.5c-4.3,0-7.8,3.5-7.8,7.8c0,4.3,3.5,7.8,7.8,7.8s7.8-3.5,7.8-7.8C54.3,55,50.8,51.5,46.5,51.5z M50.2,61.2l-3,3
	c-0.2,0.2-0.5,0.3-0.7,0.3s-0.5-0.1-0.7-0.3l-3-3c-0.4-0.4-0.4-1,0-1.4s1-0.4,1.4,0l1.3,1.3v-6c0-0.6,0.4-1,1-1s1,0.4,1,1v6l1.3-1.3
	c0.4-0.4,1-0.4,1.4,0S50.6,60.8,50.2,61.2z"/>
</svg>
